<svg width="1440" height="49" viewBox="0 0 1440 49" fill="none" xmlns="http://www.w3.org/2000/svg">
<g clip-path="url(#clip0_149_12285)">
<rect width="1566" height="1046" transform="matrix(1 0 0 -1 -83 685)" fill="#3E3C3C"/>
<g style="mix-blend-mode:color-dodge">
<path d="M-82.3125 -121.275C-17.8752 -96.72 45.0185 -91.0664 111.667 -110.885C173.205 -129.181 226.044 -166.128 284.119 -192.268C352.707 -223.144 423.173 -250.223 498.228 -225.626C617.445 -186.552 689.204 -80.4477 786.496 -10.0593C944.033 103.931 989.863 -139.049 1119.2 -171.823C1184.68 -188.409 1222.62 -140.322 1278.3 -118.333C1353.54 -88.6047 1423.84 -144.098 1482.21 -186.135" stroke="#666666" stroke-miterlimit="10"/>
<path d="M-82.3125 -93.9665C-24.321 -67.7012 33.4619 -59.5233 94.7076 -80.0515C155.035 -100.267 204.036 -142.825 259.608 -172.282C324.254 -206.559 390.777 -240.96 465.165 -219.013C589.888 -182.254 668.177 -63.0907 764.968 14.0153C930.015 145.509 957.404 -118.917 1092.62 -149.355C1162 -164.981 1205.2 -109.217 1264.78 -87.4783C1344.92 -58.2507 1421.79 -122.109 1482.19 -166.796" stroke="#666666" stroke-miterlimit="10"/>
<path d="M-82.3125 -68.0349C51.7146 3.93898 132.214 -81.1989 241.376 -150.002C303.373 -189.076 370.126 -234.284 446.099 -209.125C569.132 -168.381 650.07 -45.8795 743.336 35.5866C803.539 88.1589 861.176 100.363 912.742 33.8551C957.467 -23.8075 986.191 -106.859 1065.77 -123.57C1135.07 -138.11 1184.01 -81.032 1243.46 -57.7709C1330.95 -23.5155 1417.56 -98.41 1482.21 -147.498" stroke="#666666" stroke-miterlimit="10"/>
<path d="M-82.3125 -43.9183C47.5008 37.673 128.397 -47.0476 230.779 -123.945C285.391 -164.96 347.221 -221.767 421.004 -202.511C465.916 -190.787 505.738 -157.47 540.032 -128.055C605.951 -71.5396 660.667 -4.86464 723.248 54.8424C783.242 112.088 842.381 134.619 893.822 59.0983C932.163 2.81259 961.576 -84.1403 1038.65 -96.428C1111.94 -108.111 1165.57 -45.2326 1229.84 -23.4944C1322.54 7.88207 1416 -76.4422 1482.21 -128.138" stroke="#666666" stroke-miterlimit="10"/>
<path d="M-82.3125 -22.055C-31.7055 14.3492 24.1374 37.1932 85.8003 15.0169C140.704 -4.73946 183.385 -50.6359 225.585 -88.876C273.146 -131.977 333.224 -208.499 406.235 -193.457C447.329 -184.987 483.48 -153.527 514.186 -126.74C581.961 -67.5967 641.371 0.91411 702.304 66.8172C759.336 128.527 822.543 172.921 875.736 87.0325C911.553 29.2239 939.36 -62.2143 1020.59 -65.427C1092.68 -68.2851 1146.86 -10.706 1211.84 10.5315C1311.51 43.0971 1412.62 -52.6177 1482.23 -108.841" stroke="#666666" stroke-miterlimit="10"/>
<path d="M-82.3125 -1.9857C-30.3705 38.4866 27.4959 65.3568 93.1014 42.0331C148.464 22.3602 194.315 -22.4931 235.243 -62.8193C277.798 -104.773 334.913 -187.178 404.587 -173.117C443.574 -165.252 477.869 -133.729 506.614 -108.152C572.345 -49.6345 631.046 17.0821 690.435 81.8169C744.817 141.086 808.692 195.119 862.636 109.626C897.932 53.695 924.737 -35.5735 1004.44 -36.6792C1075.91 -37.6597 1135.51 14.224 1202.24 31.9985C1306.1 59.6823 1407.61 -31.0673 1482.21 -89.0429" stroke="#666666" stroke-miterlimit="10"/>
<path d="M-82.3125 20.3783C-25.0094 65.4611 36.132 89.7027 106.181 58.4097C164.11 32.52 214.842 -16.464 259.67 -59.8361C299.889 -98.7646 349.724 -164.459 413.139 -143.993C451.835 -131.497 485.483 -98.1179 514.353 -71.2893C572.22 -17.5279 625.997 40.6979 680.589 97.7346C732.614 152.122 795.737 205.028 851.664 129.195C891.444 75.2454 916.768 -11.0399 996.183 -14.9828C1066.92 -18.4876 1135.32 28.1807 1203.51 40.6979C1306.65 59.6406 1402.56 -11.4571 1482.23 -66.2407" stroke="#666666" stroke-miterlimit="10"/>
<path d="M-82.3125 45.2248C-20.6913 92.2478 42.0981 112.922 114.087 75.7877C169.241 47.3528 220.14 1.56066 265.511 -40.2259C307.795 -79.1753 359.716 -146.288 423.611 -116.581C456.967 -101.08 484.419 -71.5606 510.619 -46.5888C565.732 5.98343 617.862 61.7267 671.681 115.592C727.357 171.315 790.439 214.52 848.201 140.439C887.96 89.4314 916.602 9.13356 991.99 5.79564C1061.35 2.70807 1130.25 35.9412 1197.94 46.9981C1302.43 64.0632 1395.2 10.7817 1482.23 -40.5597" stroke="#666666" stroke-miterlimit="10"/>
<path d="M-82.3125 72.0952C-11.2416 123.374 56.5542 134.973 132.235 87.2619C186.618 52.9856 236.891 6.54677 285.558 -35.3233C326.194 -70.288 371.899 -125.176 428.764 -93.3822C459.22 -76.3588 484.565 -46.0046 508.825 -21.45C560.475 30.851 610.769 84.4246 663.921 135.224C718.992 187.858 782.032 225.848 840.649 159.34C884.414 109.689 914.724 30.4963 989.925 23.3198C1056.2 16.9986 1128.42 42.9092 1193.6 53.0065C1297.78 69.1328 1389.44 32.3113 1482.19 -12.6463" stroke="#666666" stroke-miterlimit="10"/>
<path d="M-82.3125 100.488C-5.31731 152.289 65.4824 157.838 142.644 103.639C200.865 62.749 253.183 11.0739 308.546 -33.7377C346.616 -64.53 388.733 -106.755 436.315 -71.3727C467.772 -47.9864 493.451 -12.7506 519.568 15.9556C563.73 64.4597 608.996 112.317 657.58 156.419C717.115 210.473 781.677 236.008 841.63 170.856C885.52 123.165 919.146 48.7298 991.26 40.6562C1059.52 33.0207 1133.32 50.9411 1200.93 60.2247C1300.35 73.8685 1388.84 51.6505 1482.21 17.0821" stroke="#666666" stroke-miterlimit="10"/>
<path d="M-82.3125 129.966C5.46745 184.854 80.0846 179.013 160.668 114.674C221.809 65.8574 273.918 9.05019 337.646 -37.0131C381.369 -68.5982 412.889 -86.4352 452.795 -42.4164C520.611 32.3948 575.536 117.658 654.993 182.163C713.318 229.499 777.485 247.148 835.601 192.052C884.706 145.509 917.749 74.0562 988.632 57.2831C1054.07 41.8244 1136.2 57.0745 1201.99 66.0452C1299.1 79.2925 1386.73 71.511 1482.23 47.9787" stroke="#666666" stroke-miterlimit="10"/>
<path d="M-82.3125 160.028C15.981 217.378 96.0218 198.748 178.9 125.335C238.268 72.7419 287.644 11.8457 355.023 -31.3596C404.482 -63.0907 430.516 -68.7025 464.351 -18.1747C517.962 61.8728 571.928 143.694 650.028 202.733C713.172 250.486 777.151 261.209 838.855 206.154C890.234 160.3 926.802 86.5317 999.458 70.301C1063.9 55.9062 1139.1 62.749 1204.06 71.5945C1298.36 84.4455 1386.96 90.2451 1482.23 79.6264" stroke="#666666" stroke-miterlimit="10"/>
<path d="M-82.3125 190.195C24.8258 249.339 108.642 220.195 193.564 139.271C253.663 82.0046 303.206 12.0544 377.197 -28.5431C432.122 -58.6887 451.397 -43.0214 477.598 8.65381C519.276 90.8292 571.99 173.881 649.194 227.413C714.549 272.746 780.655 274.144 842.047 222.051C895.595 176.593 934.604 104.744 1006.34 84.5916C1160.21 41.3655 1327.65 105.975 1482.23 111.337" stroke="#666666" stroke-miterlimit="10"/>
<path d="M-82.3125 220.007C-29.0146 248.4 21.0918 265.256 80.7312 244.582C130.066 227.475 170.472 191.572 206.665 155.001C266.367 94.6261 317.412 13.3895 396.952 -22.4932C456.612 -49.4051 470.735 -13.147 490.865 37.4434C523.678 119.973 573.221 204.527 650.633 252.844C819.351 358.176 880.242 145.05 1014.48 98.8403C1171.24 44.8702 1328.93 112.964 1482.23 142.65" stroke="#666666" stroke-miterlimit="10"/>
<path d="M-82.3125 248.984C-26.7199 278.4 24.5129 294.797 85.237 272.454C136.178 253.72 177.356 215.438 214.258 176.656C272.291 115.676 332.306 10.1141 418.876 -14.1692C479.475 -31.1718 489.029 25.5312 504.382 71.1772C531.25 151.079 577.56 239.179 655.035 281.445C815.867 369.191 896.868 171.899 1018.3 116.135C1177.6 42.9718 1331.87 117.992 1482.21 173.026" stroke="#666666" stroke-miterlimit="10"/>
<path d="M-82.3125 276.626C-26.1776 307.168 24.3877 323.754 86.1758 302.12C137.409 284.178 179.275 244.144 215.697 205.132C274.794 141.816 338.147 21.5466 430.036 3.60531C492.492 -8.59896 501.253 53.7993 514.896 100.655C538.322 181.037 580.501 270.013 661.46 307.398C822.522 381.771 909.384 192.365 1028.18 131.114C1090.03 99.2367 1170.12 82.9018 1239.02 94.0004C1326.36 108.061 1406.23 159.82 1482.23 201.815" stroke="#666666" stroke-miterlimit="10"/>
<path d="M-82.3125 302.495C-22.527 337.063 35.2559 356.987 101.445 327.112C151.114 304.686 190.519 263.462 226.127 223.449C279.488 163.492 346.741 37.1721 436.503 27.7008C504.069 20.566 512.601 94.3549 527.078 144.173C549.461 221.175 589.763 303.726 670.889 333.433C830.741 391.993 923.172 216.398 1038.51 147.782C1096.79 113.11 1172.97 89.3689 1241.15 97.8597C1332.47 109.25 1411.51 175.341 1482.19 228.644" stroke="#666666" stroke-miterlimit="10"/>
</g>
</g>
<defs>
<clipPath id="clip0_149_12285">
<rect width="1566" height="1046" fill="white" transform="matrix(1 0 0 -1 -83 685)"/>
</clipPath>
</defs>
</svg>
