<?xml version="1.0" standalone="no"?>
<!DOCTYPE svg PUBLIC "-//W3C//DTD SVG 20010904//EN"
 "http://www.w3.org/TR/2001/REC-SVG-20010904/DTD/svg10.dtd">
<svg version="1.0" xmlns="http://www.w3.org/2000/svg"
 width="1024.000000pt" height="1024.000000pt" viewBox="0 0 1024.000000 1024.000000"
 preserveAspectRatio="xMidYMid meet">

<g transform="translate(0.000000,1024.000000) scale(0.100000,-0.100000)"
fill="#ffffff" stroke="none">
<path d="M1707 6014 c-13 -27 -50 -105 -82 -174 -32 -69 -136 -294 -233 -500
-201 -430 -387 -838 -397 -869 -6 -20 -4 -21 97 -21 l104 0 88 200 88 200 219
0 c120 0 219 3 219 8 0 4 -20 52 -43 107 l-43 100 -121 5 -122 5 87 202 c48
112 90 203 93 203 4 0 14 -17 22 -37 20 -49 231 -555 332 -795 l78 -188 168 0
169 0 -9 23 c-5 12 -95 220 -201 462 -106 242 -255 586 -331 763 -77 178 -143
331 -148 340 -7 12 -14 5 -34 -34z"/>
<path d="M4887 6014 c-47 -92 -689 -1489 -710 -1547 -6 -16 1 -17 100 -15
l107 3 75 170 c41 94 76 172 79 175 2 3 102 7 222 10 l218 5 -42 100 -42 100
-122 3 c-78 2 -122 6 -122 13 0 15 174 429 180 429 3 0 18 -33 34 -73 31 -76
152 -368 301 -724 l89 -213 164 0 c151 0 163 1 158 18 -3 9 -156 367 -340 796
-330 768 -334 778 -349 750z"/>
<path d="M3131 5920 c-234 -49 -432 -202 -535 -412 -159 -323 -65 -716 219
-920 146 -105 290 -150 482 -149 l112 0 132 -259 c72 -143 137 -266 143 -274
9 -12 27 -5 106 40 52 30 94 59 92 65 -1 5 -60 122 -131 260 l-128 249 61 37
c204 124 335 369 336 625 0 214 -81 403 -238 549 -85 80 -157 123 -269 162
-77 26 -104 30 -213 33 -69 2 -145 -1 -169 -6z m263 -220 c300 -76 471 -356
398 -648 -63 -247 -263 -402 -517 -402 -158 0 -274 47 -380 154 -82 83 -118
145 -145 252 -49 189 1 369 139 504 138 136 322 187 505 140z"/>
<path d="M3074 5457 c-99 -67 -196 -133 -215 -147 l-34 -25 60 -5 c47 -4 59
-8 57 -20 -2 -8 -1 -106 3 -217 l7 -203 79 0 79 0 0 220 0 220 155 0 155 0 0
-220 0 -220 85 0 85 0 0 220 0 220 56 0 c50 0 55 2 44 16 -19 22 -409 284
-423 283 -7 0 -93 -55 -193 -122z"/>
<path d="M3220 5095 l0 -85 45 0 45 0 0 85 0 85 -45 0 -45 0 0 -85z"/>
<path d="M7463 5893 l-383 -3 0 -720 0 -720 410 0 411 0 -3 118 -3 117 -255 0
-255 0 -3 173 -2 172 200 0 200 0 0 120 0 121 -122 -3 -123 -3 -75 -110 -75
-110 -3 295 c-1 162 0 300 2 306 3 7 82 10 255 8 l251 -3 0 124 c0 124 0 125
-22 123 -13 -2 -195 -4 -405 -5z"/>
<path d="M9083 5892 l-152 -3 -22 -37 c-40 -65 -239 -373 -327 -505 l-85 -128
17 -36 c10 -20 93 -170 185 -332 92 -163 181 -320 197 -348 l29 -53 168 0 c92
0 167 3 167 6 0 3 -56 101 -124 217 -299 514 -337 580 -332 592 2 7 58 88 124
181 268 380 313 446 310 447 -2 1 -71 1 -155 -1z"/>
<path d="M5795 5873 c2 -10 4 -334 4 -720 l1 -703 150 0 150 0 0 617 0 616
104 -6 c204 -11 264 -73 254 -264 -5 -100 -29 -142 -103 -180 -39 -20 -70 -27
-147 -32 l-97 -6 75 -135 c41 -74 129 -242 197 -372 l122 -238 167 0 168 0
-52 98 c-29 53 -103 191 -165 306 -62 116 -113 213 -113 216 0 4 19 15 41 26
138 62 218 243 190 433 -22 144 -92 247 -207 302 -108 51 -169 59 -471 59
-253 0 -271 -1 -268 -17z"/>
<path d="M8190 5170 l0 -720 150 0 150 0 3 178 c1 97 1 233 0 302 -1 69 -2
313 -2 543 l-1 417 -150 0 -150 0 0 -720z"/>
</g>
</svg>
